<?xml version="1.0" encoding="utf-8"?>
<!-- Generator: Adobe Illustrator 27.0.1, SVG Export Plug-In . SVG Version: 6.00 Build 0)  -->
<svg version="1.1" id="Livello_2_00000072244785958631418150000004611901446682795926_"
	 xmlns="http://www.w3.org/2000/svg" xmlns:xlink="http://www.w3.org/1999/xlink" x="0px" y="0px" viewBox="0 0 384 384"
	 style="enable-background:new 0 0 384 384;" xml:space="preserve">
<style type="text/css">
	.st0{fill:#FFFFFF;}
</style>
<path class="st0" d="M266.2,384H117.8c-0.7-0.2-1.4-0.5-2.1-0.6c-26.4-3.7-46-17.4-59.3-40.3c-2.2-3.8-4.3-5.1-8.6-5
	c-16.4,0.5-29.9-5.8-39.2-19.3c-4-5.8-5.8-13-8.6-19.6c0-4,0-8,0-12c0.3-0.8,0.6-1.6,0.8-2.4c2.8-12.6,9.6-22.3,20.4-29.3
	c7.4-4.8,15.6-7,24.6-7.4c0-2.5,0-4.7,0-6.9c0.4-15.5-0.3-31.1,1.6-46.4c7.4-59.4,50.3-107.5,108.3-122.5c2.8-0.7,4-2,4.9-4.6
	c4.8-14,17.5-22.9,32-22.7c14.3,0.2,27.1,9.5,31.5,23.4c0.7,2.2,1.6,3.2,3.9,3.7c60.2,15,105,67.8,109.5,129.6
	c1,14.1,0.5,28.2,0.7,42.3c0,1.3,0,2.6,0,3.9c16.9,1.4,28.4,7.5,37.1,19.1c4.7,6.2,7,13.4,8.6,20.9v10.5c-1.7,7.5-3.9,14.6-8.6,20.8
	c-10.3,13.5-24.2,19.6-41,18.9c-2.8-0.1-4.4,0.6-5.8,3.3c-9.8,18.4-24.5,31.3-44.2,38.1C278.5,381.6,272.3,382.6,266.2,384
	L266.2,384z M192,315.8L192,315.8c15.4,0,30.7,0.1,46.1,0c25.6-0.3,48.5-18.6,53.5-43.6c3.3-16.3,2.8-33,0.4-49.3
	c-7.9-54.6-55.9-91.7-110.8-86.4c-42.9,4.2-79.5,37.2-88.4,79.4c-3,14.2-2.2,28.6-2.2,43c0,32.2,24.8,56.9,57,57
	C162.5,315.8,177.3,315.8,192,315.8L192,315.8z"/>
<path class="st0" d="M331.5,0c4.6,1.8,9.6,2.9,13.7,5.5c19.4,12.4,21,39.9,3,54.3c-12,9.6-24.5,18.5-36.8,27.7
	c-3.7,2.8-7.8,3.3-12,1.1c-4.3-2.2-6.2-5.9-6.2-10.7c0-14.6-0.1-29.2,0-43.8c0.1-16.7,10.8-29.8,27.1-33.5c0.7-0.2,1.4-0.5,2.1-0.7
	C325.5,0,328.5,0,331.5,0z"/>
<path class="st0" d="M61.5,0C66.7,2.2,72.4,3.8,77,6.9c8.9,6,13.4,15.1,13.6,25.8c0.3,15.2,0.1,30.5,0.1,45.7c0,4.6-2,8.2-6.2,10.3
	c-4.2,2.2-8.3,1.6-12-1.1c-12.4-9.2-25-18.2-37-28c-10.4-8.5-14.4-20-11.4-33.2c2.9-12.8,11-21.2,23.7-25.1C49.4,0.9,51,0.4,52.5,0
	C55.5,0,58.5,0,61.5,0z"/>
<path class="st0" d="M158,293.1c-11.1,0.6-21.7,0.6-31-6.5c-8.8-6.7-13.7-15.6-13.7-26.6c0.1-12.6-0.4-25.4,1.6-37.7
	c6.5-40,45.6-68.4,85.9-63.4c40.5,5,69.8,37.9,69.9,78.7c0,9.4,0.4,18.8-0.8,28.1c-2,15.1-15.1,26.5-30.3,27.6
	c-4.5,0.3-8.9,0-13.6,0c-1.2-8,0.7-15.2,4.6-21.9c3.9-6.9,6.2-14.2,6.3-22.1c0.4-25.9-20.7-46.6-46.9-45.8
	c-24.9,0.7-44.7,22.9-43,48.1c0.5,7.1,2.8,13.6,6.2,19.8C157.9,279.5,158.8,284.3,158,293.1L158,293.1z"/>
<path class="st0" d="M203.1,293.2h-22.5c0-3.6,0.3-7.2-0.1-10.7c-0.8-8.6-4.4-16.3-8.3-23.9c-5.9-11.5-1.4-25,10.1-30.5
	c8.6-4.2,18.9-2.4,25.6,4.3c6.9,6.9,8.7,17.1,4.1,25.9c-3.9,7.5-7.5,15-8.4,23.5C203.2,285.4,203.2,289.1,203.1,293.2L203.1,293.2z"
	/>
</svg>
